<svg xmlns="http://www.w3.org/2000/svg" width="960" height="600" viewBox="0 0 960 600" role="img" aria-labelledby="title desc">
  <title id="title">Inventory Dashboard Preview</title>
  <desc id="desc">A clean SmartStock dashboard illustration with warehouse metrics, stock chart, and inventory table.</desc>
  <rect width="960" height="600" rx="24" fill="#f8fafc"/>
  <rect x="32" y="32" width="188" height="536" rx="18" fill="#0f172a"/>
  <rect x="64" y="72" width="46" height="46" rx="12" fill="#38bdf8"/>
  <path d="M73 91 87 83l14 8v17l-14 8-14-8Z" fill="#e0f2fe"/>
  <rect x="126" y="78" width="58" height="10" rx="5" fill="#e2e8f0"/>
  <rect x="126" y="98" width="42" height="8" rx="4" fill="#64748b"/>
  <rect x="64" y="164" width="116" height="12" rx="6" fill="#e2e8f0"/>
  <rect x="64" y="208" width="132" height="12" rx="6" fill="#64748b"/>
  <rect x="64" y="252" width="104" height="12" rx="6" fill="#64748b"/>
  <rect x="64" y="296" width="122" height="12" rx="6" fill="#64748b"/>
  <rect x="64" y="340" width="92" height="12" rx="6" fill="#64748b"/>
  <rect x="260" y="52" width="248" height="128" rx="16" fill="#ffffff"/>
  <rect x="540" y="52" width="164" height="128" rx="16" fill="#ffffff"/>
  <rect x="736" y="52" width="164" height="128" rx="16" fill="#ffffff"/>
  <rect x="292" y="84" width="112" height="12" rx="6" fill="#94a3b8"/>
  <rect x="292" y="114" width="76" height="34" rx="8" fill="#0f172a"/>
  <path d="m410 144 24-24 19 14 25-35" fill="none" stroke="#22c55e" stroke-width="9" stroke-linecap="round" stroke-linejoin="round"/>
  <rect x="572" y="84" width="74" height="12" rx="6" fill="#94a3b8"/>
  <rect x="572" y="114" width="80" height="34" rx="8" fill="#0369a1"/>
  <rect x="768" y="84" width="82" height="12" rx="6" fill="#94a3b8"/>
  <rect x="768" y="114" width="70" height="34" rx="8" fill="#166534"/>
  <rect x="260" y="212" width="640" height="164" rx="16" fill="#ffffff"/>
  <path d="M300 330c44-76 86-83 126-49 43 37 88 35 132-20 42-53 86-58 132-11 45 45 89 46 170-24" fill="none" stroke="#38bdf8" stroke-width="10" stroke-linecap="round"/>
  <path d="M300 338h560" stroke="#e2e8f0" stroke-width="4" stroke-linecap="round"/>
  <path d="M300 293h560" stroke="#e2e8f0" stroke-width="4" stroke-linecap="round"/>
  <path d="M300 248h560" stroke="#e2e8f0" stroke-width="4" stroke-linecap="round"/>
  <rect x="260" y="408" width="640" height="140" rx="16" fill="#ffffff"/>
  <rect x="300" y="440" width="138" height="12" rx="6" fill="#0f172a"/>
  <rect x="536" y="440" width="98" height="12" rx="6" fill="#0f172a"/>
  <rect x="742" y="440" width="78" height="12" rx="6" fill="#0f172a"/>
  <path d="M300 474h560M300 512h560" stroke="#e2e8f0" stroke-width="3" stroke-linecap="round"/>
  <rect x="300" y="488" width="112" height="10" rx="5" fill="#64748b"/>
  <rect x="536" y="488" width="72" height="10" rx="5" fill="#64748b"/>
  <rect x="742" y="484" width="68" height="18" rx="9" fill="#dcfce7"/>
  <rect x="300" y="526" width="144" height="10" rx="5" fill="#64748b"/>
  <rect x="536" y="526" width="86" height="10" rx="5" fill="#64748b"/>
  <rect x="742" y="522" width="68" height="18" rx="9" fill="#fee2e2"/>
</svg>
